<svg version="1.1" viewBox="0 0 90 90" xmlns="http://www.w3.org/2000/svg">
 <g transform="translate(-88.583 -76.535)">
  <g transform="translate(-.57227)">
   <path transform="translate(88.583 76.535)" d="m45.572 1.5723a44.291 44.291 0 0 0-44.291 44.293 44.291 44.291 0 0 0 32.096 42.539l24.129-11.359v-48.838c-4e-5 -1.8499-1.1652-3.2371-3.4961-4.1621-2.2939-0.92492-5.1077-1.3867-8.4375-1.3867-3.3299 5e-5 -6.1594 0.4618-8.4902 1.3867-2.2939 0.925-3.4414 2.3122-3.4414 4.1621v43.844l-10.545 4.9941h-0.55469v-50.779c-1e-5 -4.9577 3.4602-8.7697 10.379-11.434 3.7368-1.4429 7.9535-2.164 12.652-2.1641 4.6988 6e-5 8.9174 0.72119 12.654 2.1641 6.9187 2.6639 10.379 6.4759 10.379 11.434v45.555l17.545-8.2598a44.291 44.291 0 0 0 3.7129-17.695 44.291 44.291 0 0 0-44.291-44.293z" fill="#c00"/>
  </g>
 </g>
 <g transform="translate(-88.583 -76.535)">
  <path transform="translate(88.583 76.535)" d="m89.283 45.621-21.25 10.004v16.195l17.57-8.2715c2.361-5.4162 3.6797-11.391 3.6797-17.678 0-0.0837 4.6e-4 -0.1664 0-0.25zm-32.35 15.229-40.338 18.99c4.667 3.9031 10.156 6.8607 16.164 8.5879l24.174-11.381v-16.197z" fill="#e7bcbc"/>
 </g>
</svg>
