<svg version="1.1" viewBox="0 0 300 100" xmlns="http://www.w3.org/2000/svg">
 <g transform="translate(-88.583 -76.535)">
  <path d="m134.98 80.123c-10.938 0.22849-21.72 4.5326-29.817 11.889-8.6149 7.7096-14.159 18.752-15.121 30.279-1.0559 11.437 2.3756 23.206 9.4124 32.284 6.0631 7.939 14.778 13.781 24.409 16.424 0.58104 0.14357 1.108-0.43426 1.6667-0.59161 17.58-8.2761 35.16-16.553 52.741-24.827 3.9653-8.723 5.1755-18.676 3.3123-28.082-2.2432-11.776-9.3332-22.506-19.227-29.26-7.9675-5.5163-17.692-8.3818-27.376-8.1145z" fill="#fff"/>
  <path d="m136.15 82.108a44.291 44.291 0 0 0-44.291 44.293 44.291 44.291 0 0 0 32.096 42.539l24.129-11.359v-48.838c-4e-5 -1.8499-1.1652-3.2371-3.4961-4.1621-2.2939-0.92492-5.1077-1.3867-8.4375-1.3867-3.3299 5e-5 -6.1594 0.4618-8.4902 1.3867-2.2939 0.925-3.4414 2.3122-3.4414 4.1621v43.844l-10.545 4.9941h-0.55468v-50.779c-1e-5 -4.9577 3.4602-8.7697 10.379-11.434 3.7368-1.4429 7.9535-2.164 12.652-2.1641 4.6988 6e-5 8.9174 0.72119 12.654 2.1641 6.9186 2.6639 10.379 6.4759 10.379 11.434v45.555l17.545-8.2598a44.291 44.291 0 0 0 3.7129-17.695 44.291 44.291 0 0 0-44.291-44.293z" fill="#c00"/>
 </g>
 <g transform="translate(-88.583 -76.535)">
  <path d="m180.44 126.16-21.25 10.004v16.195l17.57-8.2715c2.361-5.4162 3.6797-11.39 3.6797-17.678 0-0.0837 4.6e-4 -0.1664 0-0.25zm-32.35 15.229-40.338 18.99c4.667 3.9031 10.156 6.8607 16.164 8.5879l24.174-11.381v-16.197z" fill="#600"/>
 </g>
 <g transform="translate(0 1.4173)">
  <g transform="translate(-91.181 -70.36)" fill="#fff">
   <path d="m201.85 140.14v-33.083c0-3.2299 2.2537-5.7126 6.7612-7.4482 2.4345-0.94002 5.1824-1.41 8.2436-1.4101 3.0612 4.1e-5 5.8091 0.47007 8.2436 1.4101 4.5074 1.7355 6.7612 4.2183 6.7612 7.4482v29.829l-6.8697 3.2541h-0.36156v-31.817c-3e-5 -1.2052-0.75931-2.1091-2.2778-2.7117-1.4945-0.60257-3.3264-0.90387-5.4957-0.90391-2.1694 4e-5 -4.0134 0.30134-5.5319 0.90391-1.4945 0.60264-2.2417 1.5065-2.2417 2.7117v28.563l-6.8697 3.2541h-0.36156"/>
   <path d="m246.37 129.29c-1e-5 1.2052 0.74721 2.1091 2.2417 2.7117 1.5185 0.60261 3.3625 0.90391 5.5319 0.90391 2.1693 0 4.0013-0.3013 5.4957-0.90391 1.5185-0.60259 2.2778-1.5065 2.2778-2.7117v-20.971c-3e-5 -1.2052-0.75931-2.1091-2.2778-2.7117-1.4945-0.60257-3.3264-0.90387-5.4957-0.90391-2.1694 4e-5 -4.0134 0.30134-5.5319 0.90391-1.4945 0.60264-2.2417 1.5065-2.2417 2.7117v20.971m-7.2312 1.2655v-23.502c0-3.1817 2.2537-5.6644 6.7612-7.4482 2.4345-0.94002 5.1824-1.41 8.2436-1.4101 3.0612 4.1e-5 5.8091 0.47007 8.2436 1.4101 4.5074 1.7837 6.7612 4.2665 6.7612 7.4482v23.502c-4e-5 3.1818-2.2538 5.6645-6.7612 7.4482-2.4345 0.94006-5.1824 1.4101-8.2436 1.4101-3.0612 0-5.8091-0.47003-8.2436-1.4101-4.5075-1.7837-6.7612-4.2664-6.7612-7.4482"/>
   <path d="m287.5 140.14-13.956-39.7 6.255-2.9648h0.36156l10.232 30.154 10.015-30.154h0.36156l6.255 2.9648-12.908 36.735-6.255 2.9648h-0.36156"/>
   <path d="m312.32 90.931c-0.84364-0.8677-1.2655-1.9042-1.2655-3.1094-1e-5 -1.2293 0.42182-2.2778 1.2655-3.1456 0.84364-0.86769 1.8681-1.3016 3.0733-1.3016 1.2052 5.6e-5 2.2296 0.43393 3.0733 1.3016 0.84363 0.8678 1.2654 1.9163 1.2655 3.1456-2e-5 1.2053-0.42184 2.2417-1.2655 3.1094-0.84366 0.8678-1.8681 1.3017-3.0733 1.3016-1.2052 4.7e-5 -2.2296-0.43383-3.0733-1.3016m-0.54234 49.209v-39.41l6.8697-3.2541h0.36156v39.41l-6.8697 3.2541h-0.36156"/>
   <path d="m325.84 130.56v-23.502c-1e-5 -3.2299 2.2537-5.7126 6.7612-7.4482 2.4345-0.94002 5.1824-1.41 8.2436-1.4101 3.0612 4.1e-5 5.8091 0.47007 8.2436 1.4101 4.5074 1.7837 6.7612 4.2665 6.7612 7.4482v38.326c-4e-5 3.23-2.2538 5.7127-6.7612 7.4482-2.4346 0.94005-5.1824 1.4101-8.2436 1.4101h-11.245v-0.36156l2.8925-6.1466h8.3521c2.1694-1e-5 4.0013-0.30131 5.4957-0.90391 1.5185-0.60261 2.2778-1.5065 2.2778-2.7117v-5.9296c-2.314 0.81954-4.9052 1.2293-7.7736 1.2293-3.0612 0-5.8091-0.47003-8.2436-1.4101-4.5075-1.7837-6.7612-4.2664-6.7612-7.4482m7.2312-1.2655c-1e-5 1.2052 0.74722 2.1091 2.2417 2.7117 1.5185 0.60261 3.3625 0.90391 5.5319 0.90391 2.1935 0 4.0374-0.3013 5.5319-0.90391 1.4944-0.60259 2.2417-1.5065 2.2417-2.7117v-20.971c-3e-5 -1.2052-0.75931-2.1091-2.2778-2.7117-1.4945-0.60257-3.3264-0.90387-5.4957-0.90391-2.1694 4e-5 -4.0134 0.30134-5.5319 0.90391-1.4945 0.60264-2.2417 1.5065-2.2417 2.7117v20.971"/>
   <path d="m390.9 136.89-6.8697 3.2541h-0.36156v-1.9524c-2.314 0.81954-4.7847 1.2293-7.412 1.2293-2.8202 0-5.4476-0.47003-7.8821-1.4101-4.5075-1.7837-6.7612-4.2664-6.7612-7.4482v-9.7622c-1e-5 -3.2299 2.2537-5.7126 6.7612-7.4482 2.4345-0.94004 5.0619-1.4101 7.8821-1.4101 2.6514 3e-5 5.1221 0.40981 7.412 1.2293v-4.8449c-3e-5 -1.2052-0.75931-2.1091-2.2778-2.7117-1.4945-0.60257-3.3264-0.90387-5.4957-0.90391h-8.7859v-0.36156l2.8925-6.1466h5.8934c3.0612 4.1e-5 5.8091 0.47007 8.2436 1.4101 4.5074 1.7355 6.7612 4.2183 6.7612 7.4482v29.829m-22.055-7.5928c-2e-5 1.2052 0.74722 2.1091 2.2417 2.7117 1.5186 0.60261 3.242 0.90391 5.1703 0.90391 1.9283 0 3.6397-0.3013 5.1342-0.90391 1.5185-0.60259 2.2778-1.5065 2.2778-2.7117v-7.2312c-3e-5 -1.2052-0.75931-2.1091-2.2778-2.7117-1.4945-0.60257-3.2059-0.90388-5.1342-0.9039-1.9284 2e-5 -3.6518 0.30133-5.1703 0.9039-1.4945 0.60263-2.2417 1.5065-2.2417 2.7117v7.2312"/>
  </g>
 </g>
</svg>
