<svg xmlns="http://www.w3.org/2000/svg" viewBox="0 0 70 32"><path d="M3.35 31.412q-1.8 0-2.596-1.256Q0 28.941 0 27.1q0-2.01.754-4.775t1.968-5.822q1.257-3.057 2.723-5.947 1.465-2.932 2.932-5.32t2.68-3.811Q12.313 0 13.026 0q.46 0 .753.545.294.502.461 1.256.168.712.168 1.298 0 1.131-.587 2.974-.544 1.801-1.591 4.063-1.006 2.22-2.43 4.523-1.382 2.262-3.057 4.356-1.633 2.094-3.476 3.602-.252 1.13-.42 2.22-.125 1.047-.125 2.01 0 1.634.46 2.43t1.383.795q1.131 0 2.22-1.005 1.13-1.005 2.094-2.513 1.005-1.55 1.717-3.183l.628.335Q9.55 27.266 7.58 29.36q-1.968 2.052-4.23 2.052zm.294-10.219q1.466-1.466 2.848-3.35 1.382-1.927 2.555-3.98 1.214-2.052 2.136-3.979t1.424-3.434q.502-1.55.502-2.387 0-.42-.125-.545-.084-.126-.168-.126-.335 0-1.173 1.09-.795 1.046-1.884 2.847t-2.22 4.105-2.178 4.817q-1.005 2.513-1.717 4.942z"/><path d="M14.281 31.999q-2.554 0-3.853-1.424-1.256-1.382-1.256-3.435 0-1.884.921-3.979.963-2.094 2.513-3.937 1.592-1.843 3.476-2.974 1.885-1.172 3.728-1.172.963 0 1.76.502.837.503.837 2.053 0 1.591-.963 3.015-.922 1.382-2.472 2.471-1.508 1.09-3.35 1.801-1.801.67-3.602.838-.084.419-.126.796t-.042.712q0 .628.126 1.256.167.628.544 1.173.377.502 1.005.796.67.293 1.634.293 1.8 0 3.56-1.006 1.759-1.046 3.267-2.722t2.554-3.685l.503.376q-1.13 2.514-2.89 4.356-1.717 1.843-3.77 2.848Q16.376 32 14.282 32zm-2.052-7.037q1.131-.377 2.555-1.089 1.424-.754 2.722-1.759 1.34-1.005 2.178-2.22.88-1.214.88-2.554 0-.46-.168-.712t-.712-.252q-1.005 0-2.136.796-1.13.754-2.178 2.01t-1.885 2.765-1.256 3.016z"/><path d="M30.95 31.245q-1.425 0-2.262-.754-.796-.754-.796-1.968 0-1.257.586-2.64t1.131-2.721q.586-1.383.586-2.471 0-1.34-.795-1.969-.754-.67-1.55-1.215-.963 2.472-2.01 4.691t-1.718 3.351l-.377-.712q.587-1.089 1.508-3.183.963-2.094 1.885-4.775-.419-.419-.419-1.005 0-1.256.712-2.052t1.047-.796q.46 0 .503.419.084.377.084.586t-.252.838q-.21.586-.21.712 0 .586.63 1.089.67.46 1.507 1.089.837.586 1.466 1.466.67.837.67 2.178 0 1.256-.544 2.554-.503 1.299-1.048 2.471-.502 1.173-.502 2.053 0 .754.377 1.005t.88.251q1.005 0 2.052-.628 1.089-.628 2.094-1.591t1.8-2.01q.797-1.09 1.173-2.011l.545.419q-.796 1.759-2.178 3.476-1.382 1.675-3.1 2.764-1.675 1.09-3.476 1.09z"/><path d="M51.807 30.992q-1.466 0-2.22-.754-.712-.754-.712-1.927 0-.88.294-1.843.335-.963.628-1.968.293-1.047.293-2.01 0-1.173-.502-1.592-.461-.46-1.173-.46-1.299 0-2.639 1.088-1.34 1.047-2.597 2.722-1.256 1.634-2.345 3.393t-1.927 3.141q-.67 0-1.256-.251-.629-.21-.964-.67 0-.21.461-1.299.419-1.088 1.005-2.68t1.047-3.267.461-3.057q.251-.294.796-.587t1.13-.293q1.132 0 1.132 1.089 0 .67-.377 2.262-.377 1.55-.964 3.267 1.131-1.717 2.513-3.393 1.424-1.717 3.016-2.848t3.183-1.13q1.634 0 2.346 1.172.753 1.173.753 2.597 0 1.298-.419 2.43-.418 1.088-.879 2.135-.419 1.005-.419 2.052 0 .88.335 1.257.377.335.922.335 1.047 0 2.094-.963 1.047-1.006 2.01-2.513 1.006-1.508 1.76-3.058l.46.545q-.88 2.052-1.968 3.644t-2.388 2.513-2.89.921z"/><path fill="red" d="M65.84 12.062q-.67 0-1.214-.334-.506-.337-.506-1.05 0-.879 1.007-1.505 1.047-.671 2.054-.671.627 0 1.005.293t.376 1.004q0 .796-.88 1.55-.835.713-1.842.713z"/><path d="M60.813 31.245q-1.633 0-2.429-1.047-.796-1.005-.796-2.471 0-.963.335-2.43.377-1.465.964-3.057.586-1.633 1.34-3.057.796-1.424 1.675-2.304.88-.921 1.718-.921.376 0 .628.251.293.21.293.67 0 .503-.67 1.634-.628 1.13-1.508 2.596t-1.55 3.1q-.628 1.591-.628 3.057 0 1.508.503 2.01t1.55.503q1.423 0 3.015-1.424 1.633-1.424 3.434-4.984l.377.419q-1.214 3.602-3.518 5.528-2.262 1.927-4.733 1.927z"/><path fill="red" d="M20.467 12.062q-.671 0-1.214-.334-.506-.337-.506-1.05 0-.879 1.007-1.505 1.047-.671 2.054-.671.626 0 1.005.293t.376 1.004q0 .796-.88 1.55-.835.713-1.842.713z"/></svg>